{"title":"Gasland Part 2 (2013) HDRip x264 AC-3-FooKaS [PublicHash]","uid":8720194,"size":2145669925,"categoryP":"video","categoryS":"movies","magnet":"?xt=urn:btih:8c20c5772eeb9101cfe82cae6a1bbfde160f008d&amp;dn=Gasland+Part+2+%282013%29+HDRip+x264+AC-3-FooKaS+%5BPublicHash%5D&amp;tr=udp%3A%2F%2Ftracker.openbittorrent.com%3A80&amp;tr=udp%3A%2F%2Fopen.demonii.com%3A1337&amp;tr=udp%3A%2F%2Ftracker.coppersurfer.tk%3A6969&amp;tr=udp%3A%2F%2Fexodus.desync.com%3A6969","seeders":1,"leechers":1,"uploader":"R0thschild","files":3,"time":1374365900,"description":"              ***********************************************\n\n                PublicHash - Largest Bittorrent Community\n      \n                       &lt;a href=&quot; http://publichash.com/&quot; rel=&quot;nofollow&quot; target=&quot;_NEW&quot;&gt; http://publichash.com/&lt;/a&gt;\n\n          Crystal Clean files - Fast Speed! No Virus! No Fake! Enjoy!\n    \n              ***********************************************\nSource: 720p DON (thx)\nFormat: Matroska\nFormat version: Version 2\nFile size: 2.00 GiB\nDuration: 2h 5mn\nOverall bit rate: 2 283 Kbps\nEncoded date: UTC 2013-07-20 11:12:40\nWriting application: mkvmerge v6.2.0 ('Promised Land'wink.gif built on Apr 28 2013 12:22:01\nWriting library: libebml v1.3.0 + libmatroska v1.4.0\n\nVideo:\n\nID: 1\nFormat: AVC\nFormat/Info: Advanced Video Codec\nFormat profile: &lt;a class=&quot;__cf_email__&quot; href=&quot;/cdn-cgi/l/email-protection&quot; data-cfemail=&quot;1159787679515d223f21&quot;&gt;[email&amp;#160;protected]&lt;/a&gt;&lt;script cf-hash='f9e31' type=&quot;text/javascript&quot;&gt;\n/* &lt;![CDATA[ */!function(){try{var t=&quot;currentScript&quot;in document?document.currentScript:function(){for(var t=document.getElementsByTagName(&quot;script&quot;),e=t.length;e--;)if(t[e].getAttribute(&quot;cf-hash&quot;))return t[e]}();if(t&amp;&amp;t.previousSibling){var e,r,n,i,c=t.previousSibling,a=c.getAttribute(&quot;data-cfemail&quot;);if(a){for(e=&quot;&quot;,r=parseInt(a.substr(0,2),16),n=2;a.length-n;n+=2)i=parseInt(a.substr(n,2),16)^r,e+=String.fromCharCode(i);e=document.createTextNode(e),c.parentNode.replaceChild(e,c)}}}catch(u){}}();/* ]]&gt; */&lt;/script&gt;\nFormat settings, CABAC: Yes\nFormat settings, ReFrames: 4 frames\nCodec ID: V_MPEG4/ISO/AVC\nDuration: 2h 5mn\nBit rate: 1 897 Kbps\nWidth: 720 pixels\nHeight: 400 pixels\nDisplay aspect ratio: 16:9\nFrame rate mode: Constant\nFrame rate: 23.976 fps\nColor space: YUV\nChroma subsampling: 4:2:0\nBit depth: 8 bits\nScan type: Progressive\nBits/(Pixel*Frame): 0.275\nStream size: 1.62 GiB (81%)\nWriting library: x264 core 133 r2334 a3ac64b\nDefault: Yes\nForced: No\n\nAudio:\n\nID: 2\nFormat: AC-3\nFormat/Info: Audio Coding 3\nMode extension: CM (complete main)\nFormat settings, Endianness: Big\nCodec ID: A_AC3\nDuration: 2h 5mn\nBit rate mode: Constant\nBit rate: 384 Kbps\nChannel(s): 6 channels\nChannel positions: Front: L C R, Side: L R, LFE\nSampling rate: 48.0 KHz\nBit depth: 16 bits\nCompression mode: Lossy\nStream size: 344 MiB (17%)\nLanguage: English\nDefault: Yes\nForced: No\n\nIMDB: http://www.imdb.com/title/tt2795078/\n\nScreens: &lt;a href=&quot;\nhttp://imgsure.com/?p=285672&quot; rel=&quot;nofollow&quot; target=&quot;_NEW&quot;&gt;\nhttp://imgsure.com/?p=285672&lt;/a&gt; &lt;a href=&quot;\nhttp://imgsure.com/?p=987645&quot; rel=&quot;nofollow&quot; target=&quot;_NEW&quot;&gt;\nhttp://imgsure.com/?p=987645&lt;/a&gt;","torrent":{"xt":"urn:btih:8c20c5772eeb9101cfe82cae6a1bbfde160f008d","amp;dn":"Gasland+Part+2+%282013%29+HDRip+x264+AC-3-FooKaS+%5BPublicHash%5D","amp;tr":["udp%3A%2F%2Ftracker.openbittorrent.com%3A80","udp%3A%2F%2Fopen.demonii.com%3A1337","udp%3A%2F%2Ftracker.coppersurfer.tk%3A6969","udp%3A%2F%2Fexodus.desync.com%3A6969"],"infoHash":"8c20c5772eeb9101cfe82cae6a1bbfde160f008d","infoHashBuffer":{"type":"Buffer","data":[140,32,197,119,46,235,145,1,207,232,44,174,106,27,191,222,22,15,0,141]},"announce":[],"urlList":[]}}